<svg id="Layer_3" data-name="Layer 3" xmlns="http://www.w3.org/2000/svg" viewBox="0 0 9916.99 6994.7"><defs><style>.cls-1{fill:none;stroke:#b0e3ff;stroke-linecap:round;stroke-linejoin:round;stroke-width:6px;}</style></defs><title>分散式系統infographic</title><path class="cls-1" d="M2159.2,978.24l2896.29.51c153.18,0,277.36,124.18,277.36,277.36v900c0,357,289.4,646.39,646.39,646.39h-20l1719.35.51c471.16,0,853.1,381.94,853.1,853.1V5438h-.14c0,268-217.27,485.27-485.27,485.27H1089.46c-153.18,0-277.35-124.18-277.35-277.36V4481.23c0-153.19,124.17-277.36,277.35-277.36H2926.25c153.18,0,277.36,124.17,277.36,277.36s124.17,277.35,277.35,277.35H6184.08c273.4,0,495-221.63,495-495s-221.64-495-495-495H4234c-153.18,0-277.36-124.18-277.36-277.36V2548.63c0-153.18-124.18-277.36-277.36-277.36H2159.2c-357,0-646.39-289.4-646.39-646.39s289.4-646.39,646.39-646.39Z"/></svg>