<svg id="Layer_3" data-name="Layer 3" xmlns="http://www.w3.org/2000/svg" viewBox="0 0 9916.99 6994.7"><defs><style>.cls-1{fill:none;stroke:#b0e3ff;stroke-linecap:round;stroke-linejoin:round;stroke-width:6px;}</style></defs><title>分散式系統line</title><line class="cls-1" x1="812.11" y1="5646.04" x2="812.11" y2="5645.9"/><path class="cls-1" d="M2790.57,2271.27h888.71c153.18,0,277.36,124.18,277.36,277.36v942.52c0,153.18,124.18,277.36,277.36,277.36H6184.08c273.4,0,495,221.64,495,495s-221.64,495-495,495H3481c-153.18,0-277.35-124.17-277.35-277.35s-124.18-277.36-277.36-277.36H1089.46c-153.18,0-277.35,124.17-277.35,277.36V5645.9c0,153.18,124.17,277.36,277.35,277.36H8046.28c268,0,485.27-217.26,485.27-485.27h.14V3656.09c0-471.16-381.94-853.1-853.1-853.1l-1719.35-.51h20c-357,0-646.39-289.4-646.39-646.39v-900c0-153.18-124.18-277.36-277.36-277.36l-2896.29-.51v.25c-357,0-646.39,289.4-646.39,646.39s289.4,646.39,646.39,646.39H2789"/></svg>